<svg width="431" height="413" viewBox="0 0 431 413" fill="none" xmlns="http://www.w3.org/2000/svg">
<path d="M215.5 413C334.517 413 431 320.547 431 206.5C431 92.4532 334.517 0 215.5 0C96.4826 0 0 92.4532 0 206.5C0 320.547 96.4826 413 215.5 413Z" fill="url(#paint0_linear_0_1)"/>
<path d="M202.669 325.658C197.264 325.658 191.974 323.645 186.799 319.62C181.739 315.595 176.851 310.535 172.136 304.44C167.536 298.23 163.281 291.847 159.371 285.292C155.921 279.887 152.069 273.102 147.814 264.937C143.674 256.657 139.419 247.63 135.049 237.855C130.679 227.965 126.481 217.96 122.456 207.84C118.431 197.605 114.809 187.83 111.589 178.515C108.369 169.085 105.781 160.69 103.826 153.33C101.986 145.855 101.066 140.105 101.066 136.08C101.066 129.18 103.366 123.947 107.966 120.382C112.681 116.702 118.604 114.862 125.734 114.862C131.944 114.862 137.291 116.357 141.776 119.347C146.261 122.222 149.596 127.11 151.781 134.01C154.081 142.06 156.669 151.145 159.544 161.265C162.534 171.385 165.581 181.677 168.686 192.142C171.906 202.492 175.069 212.382 178.174 221.812C181.279 231.242 184.096 239.235 186.626 245.79C190.306 254.99 193.584 262.292 196.459 267.697C199.334 273.102 201.864 275.805 204.049 275.805C206.464 275.805 209.626 273.275 213.536 268.215C217.561 263.04 221.989 256.082 226.819 247.342C230.614 241.017 234.581 233.715 238.721 225.435C242.976 217.04 247.289 208.127 251.659 198.697C256.029 189.267 260.284 179.722 264.424 170.062C268.564 160.402 272.359 151.087 275.809 142.117C278.224 135.907 280.926 131.192 283.916 127.972C286.906 124.752 290.241 122.51 293.921 121.245C297.716 119.98 301.799 119.347 306.169 119.347C310.539 119.347 314.391 120.267 317.726 122.108C321.061 123.832 323.649 126.19 325.489 129.18C327.444 132.055 328.421 135.39 328.421 139.185C328.421 143.21 327.099 148.845 324.454 156.09C321.924 163.335 318.474 171.557 314.104 180.757C309.849 189.957 304.961 199.56 299.441 209.565C294.036 219.57 288.401 229.46 282.536 239.235C276.786 248.895 271.151 257.865 265.631 266.145C260.226 274.31 255.339 281.21 250.969 286.845C245.679 293.515 240.274 299.84 234.754 305.82C229.349 311.685 223.944 316.457 218.539 320.137C213.134 323.818 207.844 325.658 202.669 325.658Z" fill="white"/>
<defs>
<linearGradient id="paint0_linear_0_1" x1="0.0146848" y1="206.5" x2="431" y2="206.5" gradientUnits="userSpaceOnUse">
<stop stop-color="#0AA84D"/>
<stop offset="0.2" stop-color="#089B46"/>
<stop offset="0.57" stop-color="#057B34"/>
<stop offset="1" stop-color="#004F1C"/>
</linearGradient>
</defs>
</svg>
